{"accessors" : [{"bufferView" : 0, "byteOffset" : 0, "componentType" : 5123, "count" : 29310, "type" : "SCALAR", "max" : [28103], "min" : [0]}, {"bufferView" : 1, "byteOffset" : 0, "componentType" : 5126, "count" : 28104, "type" : "VEC3", "max" : [531.5180053710938, 623.2213134765625, 120.42980194091797], "min" : [-605.9450073242188, 0.008799999952316284, -120.42980194091797], "name" : "POSITION"}, {"bufferView" : 1, "byteOffset" : 12, "componentType" : 5126, "count" : 28104, "type" : "VEC2", "max" : [0.9950000047683716, -0.004999999888241291], "min" : [0.004999999888241291, -0.8385000228881836], "name" : "TEXCOORD_0"}, {"bufferView" : 1, "byteOffset" : 20, "componentType" : 5126, "count" : 28104, "type" : "VEC3", "max" : [1.0000044107437134, 1.0000044107437134, 1.0000044107437134], "min" : [-1.0000044107437134, -1.0000044107437134, -1.0000044107437134], "name" : "NORMAL"}], "asset" : {"generator" : "Aspose.3D 22.10", "version" : "2.0"}, "buffers" : [{"uri" : "data:application/octet-stream;base64,", "byteLength" : 996548}], "bufferViews" : [{"buffer" : 0, "byteOffset" : 0, "byteLength" : 58620, "target" : 34963}, {"buffer" : 0, "byteOffset" : 58624, "byteLength" : 937920, "byteStride" : 32, "target" : 34962}], "meshes" : [{"primitives" : [{"attributes" : {"POSITION" : 1, "TEXCOORD_0" : 2, "NORMAL" : 3}, "indices" : 0, "mode" : 4}], "name" : ""}], "nodes" : [{"mesh" : 0, "name" : "Boat"}], "scene" : 0, "scenes" : [{"nodes" : [0]}]}